<?xml version="1.0" encoding="utf-8"?>
<!-- Generator: Adobe Illustrator 16.0.4, SVG Export Plug-In . SVG Version: 6.00 Build 0)  -->
<!DOCTYPE svg PUBLIC "-//W3C//DTD SVG 1.1//EN" "http://www.w3.org/Graphics/SVG/1.1/DTD/svg11.dtd">
<svg version="1.1" id="Layer_1" xmlns="http://www.w3.org/2000/svg" xmlns:xlink="http://www.w3.org/1999/xlink" x="0px" y="0px"
	 width="144.234px" height="108.551px" viewBox="0 0 144.234 108.551" enable-background="new 0 0 144.234 108.551"
	 xml:space="preserve">
<g>
	<circle fill="#FFFFFF" cx="28.132" cy="94.442" r="1.862"/>
	<circle fill="#FFFFFF" cx="40.844" cy="87.747" r="1.756"/>
	<circle fill="#FFFFFF" cx="40.253" cy="64.105" r="1.668"/>
	<circle fill="#FFFFFF" cx="46.782" cy="60.611" r="1.826"/>
	<circle fill="#FFFFFF" cx="55.697" cy="58.213" r="2.006"/>
	<circle fill="#FFFFFF" cx="62.465" cy="57.103" r="2.041"/>
	<path fill="#FFFFFF" d="M55.983,83.489c0,0-7.303,10.812,7.088,25.062C63.072,108.551,67.799,88.573,55.983,83.489z"/>
	<path fill="#FFFFFF" d="M59.068,79.765c0,0,9.589,10.453,32,7.304C91.069,87.068,76.411,70.271,59.068,79.765z"/>
	<path fill="#C3953D" d="M77.922,56.207c0,0,33.053,17.614,50.811-20.764C128.733,35.443,92.01,43.135,77.922,56.207z"/>
	<path fill="#C3953D" d="M130.167,26.851c0,0-23.199,1.861-28.642,8.592C101.525,35.443,122.576,50.767,130.167,26.851z"/>
	<path fill="#C3953D" d="M77.922,55.062c0,0-2.746-30.501,33.342-48.259c0,0,0.945,14.623-6.832,27.216"/>
	<path fill="#ECCC8F" d="M105.538,9.912c0,0-40.814,2.044-29.002,45.149C76.536,55.062,92.94,49.682,105.538,9.912z"/>
	<path fill="#9CA2A0" d="M97.581,44.924"/>
	<path fill="#ECCC8F" d="M77.922,56.207c0,0,25.893,2.578,49.521-19.761c0,0-20.876-7.141-31.292,1.006
		C96.151,37.452,84.25,40.454,77.922,56.207z"/>
	<path fill="#FFFFFF" d="M141.075,7.092c0.646-0.902-0.843-1.758-1.483-0.867c-2.052,2.852-4.349,5.495-6.825,7.958
		c1.567-3.024,2.449-6.396,2.411-9.529c-0.014-1.108-1.731-1.108-1.72,0c0.078,6.376-3.469,14.243-9.389,16.907
		c-0.492,0.221-0.349,0.135-0.953,0.678c-0.307,0.215-0.48,0.35-0.787,0.561c3.6-5.746,3.66-13.291,4.543-20.151
		c0.142-1.097-1.579-1.084-1.719,0c-1.073,8.362-0.65,18.31-8.453,23.603c-0.074,0.053-0.122,0.118-0.176,0.179
		c-0.809,0.462-1.615,0.931-2.439,1.367c2.549-3.812,3.155-9.293,3.878-13.464c0.188-1.083-1.468-1.547-1.658-0.457
		c-0.901,5.205-1.469,13.097-6.764,15.812c-0.255,0.132-0.384,0.331-0.419,0.542c-1.029,0.467-2.057,0.948-3.1,1.375
		c-5.123,2.099-10.324,3.861-15.018,6.861c-5.045,3.225-8.41,8.204-11.781,13.016c-6.968,9.946-16.079,17.283-26.339,22.327
		c4.278-4.262,7.146-10.33,9.715-15.451c0.495-0.986-0.988-1.857-1.484-0.867c-2.919,5.82-6.211,13.006-11.679,17.01
		c2.687-4.621,3.24-10.567,6.727-14.822c0.695-0.85-0.513-2.072-1.216-1.216c-3.534,4.312-4.034,10.788-6.991,15.417
		c1.051-3.789,0.588-8.02,0.153-11.945c-0.121-1.088-1.841-1.101-1.719,0c0.564,5.076,1.512,11.197-2.042,15.433
		c-0.004,0.004-0.004,0.011-0.007,0.017c-0.989,0.346-1.974,0.699-2.973,1.01c2.419-3.209,0.897-10.514,0.122-13.536
		c-0.275-1.073-1.934-0.618-1.658,0.456c0.523,2.039,0.759,4.137,0.872,6.235c0.084,1.531,0.447,5.729-1.416,6.456
		c-0.512,0.199-0.654,0.716-0.539,1.131c-2.449,0.674-4.925,1.271-7.439,1.724c-0.02-0.02-0.045-0.036-0.065-0.056
		c-0.507-0.49-1.178-0.177-1.4,0.313c-0.254,0.042-0.506,0.096-0.763,0.136c-0.005-0.003-0.01-0.008-0.017-0.011
		c-0.366-0.156-0.713-0.056-0.96,0.15c-1.947,0.28-3.911,0.488-5.881,0.644c2.834-1.874,4.656-4.819,5.872-8.153
		c3.54-1.892,9.51-9.239,5.979-37.725c0,0-18.616,20.335-8.307,38.378c0,0,0.097,0.006,0.255-0.006
		c-0.944,2.177-2.225,4.076-3.953,5.477c-0.284-0.023-0.576,0.079-0.766,0.397c-0.074,0.123-0.166,0.232-0.262,0.343
		c-0.101,0.062-0.185,0.147-0.288,0.208c-0.183,0.105-0.279,0.247-0.339,0.396c-0.238,0.199-0.483,0.394-0.695,0.597
		c-0.081,0.078-0.128,0.161-0.169,0.245c-6.139,0.318-12.339,0.079-18.471-0.752c-1.082-0.146-1.551,1.509-0.457,1.657
		c9.389,1.272,18.888,1.357,28.217,0.057c2.197,2.023,0.055,8.168-1.388,9.964c-0.688,0.854,0.52,2.079,1.214,1.215
		c1.803-2.241,3.944-8.312,2.168-11.486c0.044-0.007,0.087-0.016,0.131-0.024c2.419,2.099,5.216,3.717,8.118,5.058
		c0.999,0.463,1.871-1.019,0.865-1.483c-2.381-1.102-4.717-2.363-6.797-3.961c3.417-0.635,6.805-1.44,10.146-2.489
		c2.295-0.723,4.518-1.594,6.685-2.575c2.766,1.77,4.726,4.413,5.315,7.704c0.196,1.09,1.85,0.627,1.658-0.457
		c-0.395-2.206-1.386-4.172-2.776-5.828c1.749,0.949,3.578,1.679,5.67,1.761c1.109,0.043,1.104-1.676,0-1.719
		c-2.646-0.103-4.873-1.447-7.051-2.833c3.081-1.567,6.057-3.343,8.947-5.294c5.534-3.738,10.931-7.664,15.04-12.99
		c4.513-5.848,8.111-12.534,14.083-17.069c5.372-4.079,12.191-5.891,18.31-8.518c4.877-2.093,9.586-4.7,14.003-7.74
		c0.203,0.075,0.44,0.066,0.685-0.091c3.953-2.544,8.371-1.363,12.742-1.029c1.105,0.085,1.098-1.634,0-1.719
		c-3.111-0.238-6.174-0.777-9.117-0.356C132.637,17.107,137.267,12.389,141.075,7.092z"/>
	<circle fill="#FFFFFF" cx="117.383" cy="13.104" r="2.255"/>
	<circle fill="#FFFFFF" cx="125.76" cy="2.363" r="2.363"/>
	<circle fill="#FFFFFF" cx="133.708" cy="4.087" r="2.255"/>
	<circle fill="#FFFFFF" cx="141.764" cy="5.478" r="2.47"/>
	<circle fill="#FFFFFF" cx="138.273" cy="22.555" r="2.31"/>
</g>
</svg>
