<?xml version="1.0" encoding="utf-8"?>
<!-- Generator: Adobe Illustrator 16.0.4, SVG Export Plug-In . SVG Version: 6.00 Build 0)  -->
<!DOCTYPE svg PUBLIC "-//W3C//DTD SVG 1.1//EN" "http://www.w3.org/Graphics/SVG/1.1/DTD/svg11.dtd">
<svg version="1.1" id="Layer_1" xmlns="http://www.w3.org/2000/svg" xmlns:xlink="http://www.w3.org/1999/xlink" x="0px" y="0px"
	 width="208.621px" height="36.603px" viewBox="0 0 208.621 36.603" enable-background="new 0 0 208.621 36.603"
	 xml:space="preserve">
<g>
	<path fill="#A9A8A8" d="M182.53,6.714c1.286-0.382,2.62-0.671,3.982-0.898c0.685-0.086,1.374-0.208,2.072-0.226l1.049-0.061
		l1.056,0.006c0.708-0.013,1.409,0.1,2.116,0.151c0.067,0.009,0.134,0.021,0.2,0.032c0.941,0.94,1.72,2.005,2.292,3.137
		c0.808,1.599,1.182,3.338,1.097,4.999c-0.077,1.661-0.582,3.226-1.354,4.562c-0.78,1.338-1.813,2.452-2.946,3.347
		c-1.147,0.878-2.384,1.545-3.619,2.05c-1.24,0.501-2.488,0.8-3.673,1.034c-2.377,0.438-4.53,0.54-6.317,0.552
		c-1.789,0.002-3.221-0.07-4.204-0.116c-0.98-0.06-1.52-0.067-1.52-0.067s0.121,0.055,0.356,0.162
		c0.235,0.1,0.585,0.261,1.054,0.432c0.932,0.356,2.331,0.802,4.186,1.125c1.848,0.312,4.173,0.492,6.82,0.074
		c1.323-0.205,2.714-0.583,4.124-1.146c0.703-0.29,1.411-0.625,2.109-1.024c0.691-0.411,1.37-0.883,2.022-1.419
		c1.297-1.079,2.475-2.45,3.296-4.095c0.835-1.629,1.297-3.526,1.243-5.459c-0.043-1.932-0.611-3.882-1.627-5.584
		c-0.485-0.826-1.075-1.588-1.735-2.286c0.097,0.021,0.191,0.037,0.29,0.066c1.415,0.352,2.774,0.759,4.072,1.354
		c0.326,0.146,0.653,0.287,0.972,0.448l0.923,0.536l0.46,0.268l0.432,0.307l0.859,0.617c1.084,0.899,2.033,1.932,2.78,3.077
		c0.717,1.162,1.226,2.417,1.481,3.702c0.274,1.284,0.214,2.593-0.035,3.816c-0.489,2.47-1.934,4.555-3.668,6.04
		c-1.741,1.504-3.771,2.465-5.739,3.027c-1.97,0.583-3.878,0.778-5.573,0.924c-0.852,0.046-1.654,0.123-2.402,0.102
		c-0.374,0.004-0.732-0.002-1.078,0.013c-0.346,0.01-0.675-0.02-0.988-0.026c-0.624-0.036-1.194-0.013-1.684-0.047
		c-0.488-0.044-0.913-0.053-1.254-0.073c-0.688-0.029-1.062-0.029-1.062-0.029s0.335,0.153,0.979,0.41
		c0.322,0.12,0.719,0.288,1.195,0.452c0.477,0.159,1.035,0.312,1.665,0.469c0.314,0.076,0.646,0.178,1,0.242
		c0.354,0.069,0.727,0.119,1.115,0.182c0.391,0.051,0.795,0.141,1.222,0.165c0.425,0.038,0.868,0.054,1.326,0.081
		c1.828,0.041,3.943-0.062,6.157-0.735c0.552-0.163,1.104-0.377,1.672-0.571c0.558-0.225,1.111-0.5,1.681-0.759
		c1.097-0.61,2.199-1.323,3.176-2.256c0.24-0.235,0.509-0.442,0.729-0.708c0.225-0.258,0.45-0.516,0.677-0.778
		c0.234-0.255,0.404-0.566,0.609-0.85c0.2-0.289,0.397-0.581,0.551-0.903c0.709-1.229,1.171-2.636,1.365-4.091
		c0.191-1.451,0.14-2.969-0.269-4.409c-0.391-1.443-1.062-2.804-1.934-4.018c-0.896-1.205-2.012-2.205-3.187-3.113l-0.932-0.609
		l-0.467-0.303l-0.49-0.259l-0.983-0.514l-1.019-0.434c-1.354-0.589-2.797-0.992-4.191-1.311c-0.395-0.093-0.787-0.166-1.179-0.234
		c-0.506-0.465-1.04-0.901-1.6-1.301c-1.635-1.173-3.495-2.029-5.424-2.69c-1.945-0.635-3.962-1.085-6.053-1.226
		c-4.174-0.256-8.386,0.628-12.362,1.987c-3.99,1.366-7.795,3.21-11.412,5.211c-3.619,2.006-7.077,4.153-10.354,6.317
		c-3.28,2.164-6.383,4.342-9.326,6.393c-1.298,0.912-2.561,1.793-3.795,2.648c-0.92-0.921-1.831-1.848-2.735-2.771
		c-1.259-1.253-2.503-2.495-3.759-3.657c-1.254-1.166-2.53-2.237-3.809-3.177c-1.258-0.962-2.563-1.732-3.804-2.359
		c-0.312-0.151-0.619-0.299-0.919-0.443c-0.302-0.14-0.615-0.238-0.909-0.354c-0.586-0.242-1.168-0.398-1.711-0.548
		c-0.534-0.172-1.062-0.236-1.539-0.324c-0.473-0.097-0.923-0.122-1.325-0.148c-0.803-0.089-1.418-0.029-1.844-0.016
		c-0.423,0.017-0.649,0.027-0.649,0.027s0.225,0.032,0.645,0.088c0.419,0.054,1.045,0.128,1.797,0.32
		c0.379,0.084,0.796,0.167,1.239,0.332c0.442,0.154,0.932,0.273,1.421,0.5c0.498,0.204,1.026,0.415,1.552,0.711
		c0.266,0.142,0.542,0.273,0.813,0.432c0.27,0.162,0.546,0.329,0.826,0.501c0.285,0.161,0.561,0.355,0.84,0.553
		c0.279,0.2,0.568,0.392,0.852,0.605c0.554,0.452,1.141,0.885,1.71,1.39c1.16,0.97,2.298,2.108,3.469,3.295
		c1.178,1.181,2.354,2.459,3.558,3.761c0.797,0.843,1.614,1.697,2.438,2.549c-0.905,0.621-1.799,1.229-2.663,1.811
		c-2.594,1.725-5,3.25-7.198,4.474c-2.19,1.236-4.173,2.165-5.849,2.798c-1.675,0.637-3.052,0.953-3.988,1.107
		c-0.233,0.037-0.44,0.068-0.618,0.096c-0.187,0.017-0.344,0.029-0.47,0.04c-0.252,0.022-0.383,0.035-0.383,0.035l0.02,0.575
		c0,0,0.13,0.001,0.384,0.008c0.127,0.002,0.284,0.007,0.471,0.01c0.193-0.008,0.418-0.018,0.672-0.029
		c1.005-0.064,2.474-0.254,4.263-0.793c1.794-0.519,3.896-1.365,6.206-2.512c2.306-1.152,4.819-2.601,7.478-4.295
		c0.98-0.617,1.987-1.281,3.006-1.963c1.264,1.297,2.62,2.52,3.995,3.682c1.368,1.187,2.834,2.227,4.292,3.164
		c1.478,0.912,2.947,1.74,4.43,2.334c0.721,0.341,1.467,0.568,2.166,0.831c0.703,0.255,1.416,0.401,2.079,0.596
		c0.67,0.173,1.328,0.273,1.942,0.403c0.615,0.129,1.216,0.148,1.769,0.223c0.276,0.031,0.546,0.059,0.805,0.086
		c0.26,0.01,0.512,0.018,0.752,0.026c0.481,0.011,0.923,0.021,1.322,0.028c0.797-0.012,1.421-0.072,1.845-0.093
		c0.422-0.03,0.648-0.046,0.648-0.046s-0.894-0.121-2.459-0.331c-0.385-0.075-0.812-0.155-1.276-0.243
		c-0.231-0.04-0.472-0.083-0.722-0.129c-0.246-0.061-0.502-0.125-0.766-0.191c-1.056-0.242-2.224-0.598-3.472-1.025
		c-1.236-0.472-2.561-1.005-3.893-1.709c-0.332-0.178-0.668-0.356-1.009-0.538c-0.331-0.199-0.666-0.4-1.005-0.604
		c-0.689-0.383-1.347-0.859-2.032-1.309c-0.664-0.486-1.347-0.97-2.002-1.508c-0.333-0.263-0.668-0.527-1.004-0.793
		c-0.327-0.28-0.657-0.561-0.987-0.843c-1.199-1.037-2.369-2.153-3.536-3.286c1.153-0.787,2.323-1.601,3.524-2.439
		c2.927-2.069,6.015-4.253,9.209-6.513c3.202-2.233,6.521-4.522,10.024-6.634c3.496-2.114,7.174-4.069,11.041-5.56
		c3.86-1.464,7.982-2.414,12.048-2.171c1.012,0.063,2.015,0.195,2.998,0.399c0.985,0.226,1.95,0.493,2.886,0.828
		c1.874,0.659,3.635,1.574,5.133,2.759c0.172,0.133,0.338,0.27,0.501,0.41c-0.52-0.059-1.038-0.12-1.559-0.123
		c-2.888-0.151-5.756,0.106-8.46,0.683c-2.705,0.57-5.267,1.383-7.615,2.337c-2.344,0.969-4.472,2.079-6.373,3.196
		c-0.946,0.566-1.846,1.123-2.679,1.682c-0.832,0.565-1.608,1.116-2.326,1.646c-1.431,1.077-2.629,2.074-3.585,2.928
		c-0.955,0.858-1.673,1.566-2.152,2.061c-0.473,0.499-0.717,0.776-0.717,0.776l0.388,0.429c0,0,0.296-0.21,0.849-0.599
		c0.555-0.393,1.368-0.965,2.411-1.675c1.041-0.715,2.309-1.572,3.781-2.521c0.729-0.482,1.515-0.983,2.354-1.491
		c0.831-0.52,1.71-1.058,2.642-1.59c1.854-1.085,3.897-2.193,6.111-3.255C177.556,8.46,179.952,7.457,182.53,6.714z"/>
	<path fill="#A9A8A8" d="M95.771,34.154c-0.179-0.027-0.385-0.059-0.618-0.096c-0.938-0.154-2.314-0.471-3.989-1.107
		c-1.677-0.633-3.659-1.562-5.849-2.798c-2.197-1.224-4.604-2.749-7.199-4.474c-0.863-0.582-1.757-1.189-2.663-1.811
		c0.826-0.852,1.642-1.706,2.439-2.549c1.203-1.302,2.381-2.58,3.557-3.761c1.172-1.188,2.309-2.325,3.471-3.295
		c0.567-0.505,1.156-0.938,1.71-1.39c0.282-0.213,0.572-0.405,0.851-0.605c0.278-0.198,0.555-0.392,0.839-0.553
		c0.281-0.172,0.558-0.339,0.827-0.501c0.272-0.159,0.549-0.291,0.812-0.432c0.526-0.297,1.055-0.508,1.552-0.711
		c0.491-0.227,0.979-0.347,1.422-0.5c0.443-0.165,0.859-0.248,1.24-0.332c0.751-0.192,1.378-0.266,1.796-0.32
		c0.42-0.059,0.645-0.088,0.645-0.088s-0.226-0.01-0.649-0.027c-0.425-0.013-1.042-0.073-1.845,0.016
		c-0.4,0.027-0.852,0.051-1.324,0.148c-0.477,0.088-1.004,0.151-1.539,0.324c-0.543,0.15-1.126,0.306-1.711,0.548
		c-0.294,0.116-0.608,0.214-0.909,0.354c-0.3,0.144-0.607,0.292-0.919,0.443c-1.24,0.627-2.546,1.397-3.805,2.359
		c-1.278,0.94-2.555,2.011-3.807,3.177c-1.258,1.162-2.5,2.404-3.76,3.657c-0.905,0.924-1.816,1.851-2.735,2.771
		c-1.234-0.855-2.498-1.736-3.795-2.648c-2.944-2.051-6.045-4.229-9.326-6.393c-3.276-2.164-6.736-4.311-10.354-6.317
		c-3.619-2.001-7.422-3.846-11.413-5.211c-3.977-1.358-8.188-2.243-12.363-1.987c-2.089,0.141-4.106,0.591-6.053,1.226
		c-1.928,0.661-3.787,1.517-5.424,2.69c-0.559,0.4-1.093,0.836-1.599,1.301c-0.392,0.068-0.784,0.142-1.179,0.234
		C10.71,5.813,9.268,6.216,7.914,6.805L6.896,7.239L5.913,7.752L5.421,8.011L4.954,8.314L4.023,8.923
		c-1.174,0.908-2.291,1.909-3.186,3.113c-0.873,1.214-1.544,2.575-1.935,4.018c-0.408,1.44-0.46,2.958-0.27,4.409
		C-1.172,21.918-0.71,23.326,0,24.554c0.154,0.322,0.352,0.614,0.551,0.903c0.205,0.283,0.376,0.595,0.608,0.85
		c0.229,0.263,0.453,0.521,0.678,0.778c0.221,0.266,0.488,0.473,0.729,0.708c0.976,0.933,2.078,1.646,3.175,2.256
		c0.57,0.259,1.123,0.534,1.682,0.759c0.568,0.194,1.12,0.408,1.672,0.571c2.214,0.674,4.328,0.776,6.157,0.735
		c0.458-0.027,0.901-0.043,1.327-0.081c0.426-0.024,0.83-0.114,1.221-0.165c0.39-0.062,0.763-0.112,1.115-0.182
		c0.354-0.064,0.685-0.166,1-0.242c0.63-0.156,1.188-0.31,1.665-0.469c0.477-0.164,0.873-0.332,1.196-0.452
		c0.644-0.257,0.979-0.41,0.979-0.41s-0.375,0-1.062,0.029c-0.341,0.021-0.765,0.029-1.253,0.073
		c-0.49,0.034-1.062,0.011-1.686,0.047c-0.313,0.007-0.641,0.036-0.987,0.026c-0.346-0.015-0.704-0.009-1.078-0.013
		c-0.748,0.021-1.551-0.056-2.402-0.102c-1.695-0.146-3.604-0.341-5.572-0.924c-1.969-0.562-4-1.523-5.74-3.027
		c-1.733-1.485-3.179-3.57-3.668-6.04c-0.249-1.223-0.31-2.532-0.035-3.816c0.255-1.285,0.765-2.54,1.481-3.702
		c0.748-1.145,1.696-2.177,2.779-3.077l0.86-0.617l0.432-0.307l0.46-0.268l0.923-0.536c0.318-0.161,0.646-0.301,0.971-0.448
		c1.3-0.595,2.658-1.002,4.073-1.354c0.098-0.029,0.194-0.045,0.29-0.066c-0.66,0.698-1.25,1.459-1.734,2.286
		c-1.017,1.702-1.584,3.652-1.627,5.584c-0.055,1.933,0.408,3.83,1.242,5.459c0.821,1.645,1.999,3.016,3.296,4.095
		c0.651,0.536,1.331,1.008,2.022,1.419c0.698,0.399,1.406,0.734,2.109,1.024c1.411,0.562,2.801,0.94,4.123,1.146
		c2.648,0.418,4.975,0.238,6.822-0.074c1.853-0.323,3.252-0.769,4.186-1.125c0.468-0.171,0.816-0.332,1.053-0.432
		c0.235-0.107,0.356-0.162,0.356-0.162s-0.538,0.008-1.52,0.067c-0.983,0.046-2.414,0.118-4.203,0.116
		c-1.788-0.012-3.941-0.113-6.319-0.552c-1.184-0.234-2.432-0.533-3.672-1.034c-1.236-0.505-2.472-1.172-3.619-2.05
		c-1.132-0.895-2.165-2.009-2.946-3.347c-0.771-1.336-1.276-2.901-1.354-4.562c-0.084-1.661,0.289-3.4,1.097-4.999
		c0.572-1.131,1.351-2.197,2.291-3.137c0.067-0.011,0.133-0.023,0.2-0.032c0.708-0.051,1.409-0.165,2.117-0.151l1.055-0.006
		l1.05,0.061c0.699,0.017,1.388,0.139,2.071,0.226c1.363,0.227,2.697,0.517,3.983,0.898c2.578,0.743,4.975,1.747,7.188,2.805
		c2.215,1.062,4.259,2.17,6.112,3.255c0.932,0.532,1.811,1.07,2.642,1.59c0.839,0.508,1.623,1.009,2.354,1.491
		c1.474,0.948,2.739,1.805,3.781,2.521c1.044,0.71,1.856,1.282,2.411,1.675c0.553,0.389,0.849,0.599,0.849,0.599l0.389-0.429
		c0,0-0.246-0.277-0.719-0.776c-0.479-0.495-1.196-1.203-2.151-2.061c-0.957-0.854-2.155-1.852-3.584-2.928
		c-0.72-0.531-1.496-1.081-2.327-1.646c-0.833-0.559-1.731-1.115-2.678-1.682c-1.903-1.118-4.03-2.227-6.374-3.196
		c-2.348-0.955-4.91-1.767-7.616-2.337c-2.702-0.577-5.57-0.834-8.46-0.683c-0.521,0.003-1.038,0.064-1.558,0.123
		c0.163-0.14,0.329-0.277,0.501-0.41c1.498-1.185,3.259-2.1,5.133-2.759c0.936-0.334,1.901-0.602,2.887-0.828
		c0.983-0.204,1.985-0.335,2.998-0.399c4.064-0.243,8.187,0.707,12.047,2.171c3.868,1.49,7.544,3.446,11.041,5.56
		c3.502,2.112,6.822,4.401,10.024,6.634c3.194,2.26,6.282,4.444,9.21,6.513c1.199,0.839,2.37,1.652,3.523,2.439
		c-1.168,1.133-2.337,2.249-3.536,3.286c-0.33,0.282-0.659,0.562-0.987,0.843c-0.337,0.266-0.672,0.53-1.004,0.793
		c-0.655,0.538-1.338,1.021-2.002,1.508c-0.686,0.449-1.343,0.926-2.032,1.309c-0.339,0.204-0.674,0.405-1.006,0.604
		c-0.34,0.182-0.677,0.36-1.009,0.538c-1.332,0.704-2.656,1.237-3.891,1.709c-1.25,0.428-2.417,0.783-3.474,1.025
		c-0.264,0.066-0.519,0.131-0.765,0.191c-0.249,0.046-0.491,0.089-0.722,0.129c-0.465,0.088-0.892,0.168-1.276,0.243
		c-1.564,0.21-2.459,0.331-2.459,0.331s0.226,0.016,0.649,0.046c0.423,0.021,1.048,0.081,1.845,0.093
		c0.398-0.008,0.84-0.018,1.32-0.028c0.242-0.009,0.492-0.017,0.754-0.026c0.259-0.027,0.526-0.055,0.804-0.086
		c0.552-0.074,1.154-0.094,1.77-0.223c0.613-0.13,1.272-0.23,1.941-0.403c0.663-0.194,1.376-0.341,2.08-0.596
		c0.697-0.263,1.444-0.49,2.165-0.831c1.482-0.594,2.951-1.422,4.43-2.334c1.458-0.938,2.925-1.978,4.291-3.164
		c1.375-1.162,2.731-2.385,3.997-3.682c1.019,0.682,2.023,1.346,3.005,1.963c2.658,1.694,5.172,3.143,7.479,4.295
		c2.309,1.146,4.411,1.993,6.204,2.512c1.789,0.539,3.259,0.729,4.265,0.793c0.253,0.012,0.478,0.021,0.671,0.029
		c0.188-0.003,0.345-0.008,0.471-0.01c0.254-0.007,0.384-0.008,0.384-0.008l0.02-0.575c0,0-0.131-0.013-0.383-0.035
		C96.113,34.183,95.957,34.17,95.771,34.154z"/>
</g>
</svg>
